<?xml version="1.0" encoding="UTF-8"?>
<svg xmlns="http://www.w3.org/2000/svg" viewBox="0 0 64 64">
  <defs>
    <linearGradient id="g" x1="0" y1="0" x2="1" y2="1">
      <stop offset="0" stop-color="#00e5ff"/>
      <stop offset="1" stop-color="#00e5ff"/>
    </linearGradient>
  </defs>
  <rect width="64" height="64" rx="12" fill="#ffffff"/>
  <g transform="translate(18,12)">
    <rect x="0" y="24" width="6" height="6" rx="1" fill="#e9e9e9"/>
    <rect x="0" y="32" width="6" height="6" rx="1" fill="#e9e9e9"/>
    <rect x="0" y="40" width="6" height="6" rx="1" fill="#e9e9e9"/>
    <rect x="8" y="16" width="6" height="6" rx="1" fill="#e9e9e9"/>
    <rect x="8" y="24" width="6" height="6" rx="1" fill="#e9e9e9"/>
    <rect x="8" y="32" width="6" height="6" rx="1" fill="#e9e9e9"/>
    <rect x="8" y="40" width="6" height="6" rx="1" fill="#e9e9e9"/>
    <rect x="16" y="8"  width="6" height="6" rx="1" fill="#e9e9e9"/>
    <rect x="16" y="16" width="6" height="6" rx="1" fill="#e9e9e9"/>
    <rect x="16" y="24" width="6" height="6" rx="1" fill="#e9e9e9"/>
    <rect x="16" y="32" width="6" height="6" rx="1" fill="#e9e9e9"/>
    <rect x="8"  y="8"  width="6" height="6" rx="1" fill="url(#g)"/>
    <rect x="16" y="0"  width="6" height="6" rx="1" fill="url(#g)"/>
    <rect x="24" y="8"  width="6" height="6" rx="1" fill="url(#g)"/>
  </g>
</svg>








